<?xml version="1.0" standalone="no"?><!DOCTYPE svg PUBLIC "-//W3C//DTD SVG 1.1//EN" "http://www.w3.org/Graphics/SVG/1.1/DTD/svg11.dtd"><svg width="400" height="500" version="1.1" xmlns="http://www.w3.org/2000/svg" xmlns:xlink="http://www.w3.org/1999/xlink"><defs xmlns="http://www.w3.org/1999/xhtml"><style type="text/css"><![CDATA[
body { background-color: rgb(234, 234, 234); }
#canvas svg { box-shadow: rgba(0, 0, 0, 0.0588235) 0px 3px 2px 0px, rgba(0, 0, 0, 0.0196078) -1px -1px 1px 0px inset; border-width: 1px; border-style: solid; border-color: rgb(226, 226, 226) rgb(226, 226, 226) rgb(206, 206, 206); background-color: white; }]]></style></defs><rect x="10" y="10" width="380" height="480" fill="rgb(255, 255, 255)" stroke="rgb(0, 0, 0)"/><path d="M 0 0 C 0 0 59.18655464425683 -14.94422450195998 100 0 C 224.18945040553808 -61.950479820370674 224.18945040553808 4.8539594281464815 250 0 C 59.18655464425683 -75.72390137938783 224.18945040553808 -25.353423040360212 400 0" transform="translate(0 250)" fill="none" stroke="rgb(0, 0, 0)" stroke-width="1"/><path d="M 0 0 C 0 0 43.05332314223051 -6.517574284225702 100 0 C 57.53038041293621 26.343170553445816 57.53038041293621 -39.812656375579536 250 0 C 43.05332314223051 35.63154694857076 57.53038041293621 16.876617562957108 400 0" transform="translate(0 250)" fill="none" stroke="rgb(0, 0, 0)" stroke-width="1"/><path d="M 0 0 C 0 0 80.2329339645803 22.455253964290023 100 0 C 203.38831087574363 -89.4646848551929 203.38831087574363 26.209453982301056 250 0 C 80.2329339645803 -88.25715688290074 203.38831087574363 11.079511721618474 400 0" transform="translate(0 250)" fill="none" stroke="rgb(0, 0, 0)" stroke-width="1"/><g><path d="M 0 0 L 0.75 75 L 1.5 0" transform="translate(100 100)" fill="none" stroke="rgb(0, 0, 0)"/><path d="M 0 0 L 0.75 75 L 1.5 0" transform="rotate(22.86542073975627 100 100) translate(100 100)" fill="none" stroke="rgb(0, 0, 0)"/><path d="M 0 0 L 0.75 75 L 1.5 0" transform="rotate(45.73084147951254 100 100) translate(100 100)" fill="none" stroke="rgb(0, 0, 0)"/><path d="M 0 0 L 0.75 75 L 1.5 0" transform="rotate(68.59626221926881 100 100) translate(100 100)" fill="none" stroke="rgb(0, 0, 0)"/><path d="M 0 0 L 0.75 75 L 1.5 0" transform="rotate(91.46168295902508 100 100) translate(100 100)" fill="none" stroke="rgb(0, 0, 0)"/><path d="M 0 0 L 0.75 75 L 1.5 0" transform="rotate(114.32710369878136 100 100) translate(100 100)" fill="none" stroke="rgb(0, 0, 0)"/><path d="M 0 0 L 0.75 75 L 1.5 0" transform="rotate(137.19252443853762 100 100) translate(100 100)" fill="none" stroke="rgb(0, 0, 0)"/><path d="M 0 0 L 0.75 75 L 1.5 0" transform="rotate(160.0579451782939 100 100) translate(100 100)" fill="none" stroke="rgb(0, 0, 0)"/><path d="M 0 0 L 0.75 75 L 1.5 0" transform="rotate(182.92336591805017 100 100) translate(100 100)" fill="none" stroke="rgb(0, 0, 0)"/><path d="M 0 0 L 0.75 75 L 1.5 0" transform="rotate(205.78878665780644 100 100) translate(100 100)" fill="none" stroke="rgb(0, 0, 0)"/><path d="M 0 0 L 0.75 75 L 1.5 0" transform="rotate(228.65420739756271 100 100) translate(100 100)" fill="none" stroke="rgb(0, 0, 0)"/><path d="M 0 0 L 0.75 75 L 1.5 0" transform="rotate(251.519628137319 100 100) translate(100 100)" fill="none" stroke="rgb(0, 0, 0)"/><path d="M 0 0 L 0.75 75 L 1.5 0" transform="rotate(274.38504887707523 100 100) translate(100 100)" fill="none" stroke="rgb(0, 0, 0)"/><path d="M 0 0 L 0.75 75 L 1.5 0" transform="rotate(297.25046961683154 100 100) translate(100 100)" fill="none" stroke="rgb(0, 0, 0)"/><path d="M 0 0 L 0.75 75 L 1.5 0" transform="rotate(320.1158903565878 100 100) translate(100 100)" fill="none" stroke="rgb(0, 0, 0)"/><path d="M 0 0 L 0.75 75 L 1.5 0" transform="rotate(342.9813110963441 100 100) translate(100 100)" fill="none" stroke="rgb(0, 0, 0)"/></g></svg>