<?xml version="1.0" standalone="no"?><!DOCTYPE svg PUBLIC "-//W3C//DTD SVG 1.1//EN" "http://www.w3.org/Graphics/SVG/1.1/DTD/svg11.dtd"><svg width="400" height="500" version="1.1" xmlns="http://www.w3.org/2000/svg" xmlns:xlink="http://www.w3.org/1999/xlink"><defs xmlns="http://www.w3.org/1999/xhtml"><style type="text/css"><![CDATA[
body { background-color: rgb(234, 234, 234); }
#canvas svg { box-shadow: rgba(0, 0, 0, 0.0588235) 0px 3px 2px 0px, rgba(0, 0, 0, 0.0196078) -1px -1px 1px 0px inset; border-width: 1px; border-style: solid; border-color: rgb(226, 226, 226) rgb(226, 226, 226) rgb(206, 206, 206); background-color: white; }]]></style></defs><path d="" transform="translate(10 10)" fill="rgb(255, 255, 255)" stroke="rgb(0, 0, 0)"/><path d="M 0 0 C 0 0 44.34646121226251 4.3681233655661345 100 0 C 100 7.267991197295487 277.437831973657 -41.57120536547154 250 0 C 250 34.46249342523515 360.5539076961577 -38.54091055691242 400 0" transform="translate(0 250)" fill="none" stroke="rgb(0, 0, 0)" stroke-width="1"/><path d="M 0 0 C 0 0 3.581748390570283 28.68102309294045 100 0 C 100 19.273389200679958 268.74518560944125 -36.02300852071494 250 0 C 250 -18.777054431848228 399.7877184301615 -15.889805019833148 400 0" transform="translate(0 250)" fill="none" stroke="rgb(0, 0, 0)" stroke-width="1"/><path d="M 0 0 C 0 0 30.138906417414546 4.34515995439142 100 0 C 100 -5.87572620715946 274.207269877661 -48.66548927966505 250 0 C 250 11.894077947363257 381.1621356057003 -29.939340823329985 400 0" transform="translate(0 250)" fill="none" stroke="rgb(0, 0, 0)" stroke-width="1"/><g><path d="M 0 0 L 0.5 50 L 1 0" transform="translate(100 100)" fill="none" stroke="rgb(0, 0, 0)"/><path d="M 0 0 L 0.5 50 L 1 0" transform="rotate(57.9362896382938 100 100) translate(100 100)" fill="none" stroke="rgb(0, 0, 0)"/><path d="M 0 0 L 0.5 50 L 1 0" transform="rotate(115.8725792765876 100 100) translate(100 100)" fill="none" stroke="rgb(0, 0, 0)"/><path d="M 0 0 L 0.5 50 L 1 0" transform="rotate(173.8088689148814 100 100) translate(100 100)" fill="none" stroke="rgb(0, 0, 0)"/><path d="M 0 0 L 0.5 50 L 1 0" transform="rotate(231.7451585531752 100 100) translate(100 100)" fill="none" stroke="rgb(0, 0, 0)"/><path d="M 0 0 L 0.5 50 L 1 0" transform="rotate(289.68144819146903 100 100) translate(100 100)" fill="none" stroke="rgb(0, 0, 0)"/><path d="M 0 0 L 0.5 50 L 1 0" transform="rotate(347.6177378297628 100 100) translate(100 100)" fill="none" stroke="rgb(0, 0, 0)"/></g></svg>