<?xml version="1.0" standalone="no"?><!DOCTYPE svg PUBLIC "-//W3C//DTD SVG 1.1//EN" "http://www.w3.org/Graphics/SVG/1.1/DTD/svg11.dtd"><svg width="400" height="500" version="1.1" xmlns="http://www.w3.org/2000/svg" xmlns:xlink="http://www.w3.org/1999/xlink"><defs xmlns="http://www.w3.org/1999/xhtml"><style type="text/css"><![CDATA[
body { background-color: rgb(234, 234, 234); }
#canvas svg { box-shadow: rgba(0, 0, 0, 0.0588235) 0px 3px 2px 0px, rgba(0, 0, 0, 0.0196078) -1px -1px 1px 0px inset; border-width: 1px; border-style: solid; border-color: rgb(226, 226, 226) rgb(226, 226, 226) rgb(206, 206, 206); background-color: white; }]]></style></defs><rect x="10" y="10" width="380" height="480" fill="rgb(255, 255, 255)" stroke="rgb(0, 0, 0)"/><path d="M 0 0 C 0 0 83.31500258296728 14.21827373560518 100 0 C 48.330815602093935 62.764038518071175 48.330815602093935 30.22586745209992 250 0 C 83.31500258296728 -66.85530579416081 48.330815602093935 -12.191837327554822 400 0" transform="translate(0 250)" fill="none" stroke="rgb(0, 0, 0)" stroke-width="1"/><path d="M 0 0 C 0 0 96.8537425622344 21.995759452693164 100 0 C 312.6392364501953 -57.05121220089495 312.6392364501953 -28.87066921684891 250 0 C 96.8537425622344 49.889156280551106 312.6392364501953 5.561544303782284 400 0" transform="translate(0 250)" fill="none" stroke="rgb(0, 0, 0)" stroke-width="1"/><path d="M 0 0 C 0 0 44.44215666502714 22.864736104384065 100 0 C 60.24340707808733 78.32782939076424 60.24340707808733 -49.19128343462944 250 0 C 44.44215666502714 22.40605754777789 60.24340707808733 32.91296421084553 400 0" transform="translate(0 250)" fill="none" stroke="rgb(0, 0, 0)" stroke-width="1"/><g><path d="M 0 0 L 0.5 50 L 1 0" transform="translate(100 100)" fill="none" stroke="rgb(0, 0, 0)"/><path d="M 0 0 L 0.5 50 L 1 0" transform="rotate(21.34688960406137 100 100) translate(100 100)" fill="none" stroke="rgb(0, 0, 0)"/><path d="M 0 0 L 0.5 50 L 1 0" transform="rotate(42.69377920812274 100 100) translate(100 100)" fill="none" stroke="rgb(0, 0, 0)"/><path d="M 0 0 L 0.5 50 L 1 0" transform="rotate(64.04066881218411 100 100) translate(100 100)" fill="none" stroke="rgb(0, 0, 0)"/><path d="M 0 0 L 0.5 50 L 1 0" transform="rotate(85.38755841624548 100 100) translate(100 100)" fill="none" stroke="rgb(0, 0, 0)"/><path d="M 0 0 L 0.5 50 L 1 0" transform="rotate(106.73444802030686 100 100) translate(100 100)" fill="none" stroke="rgb(0, 0, 0)"/><path d="M 0 0 L 0.5 50 L 1 0" transform="rotate(128.08133762436822 100 100) translate(100 100)" fill="none" stroke="rgb(0, 0, 0)"/><path d="M 0 0 L 0.5 50 L 1 0" transform="rotate(149.4282272284296 100 100) translate(100 100)" fill="none" stroke="rgb(0, 0, 0)"/><path d="M 0 0 L 0.5 50 L 1 0" transform="rotate(170.77511683249097 100 100) translate(100 100)" fill="none" stroke="rgb(0, 0, 0)"/><path d="M 0 0 L 0.5 50 L 1 0" transform="rotate(192.12200643655234 100 100) translate(100 100)" fill="none" stroke="rgb(0, 0, 0)"/><path d="M 0 0 L 0.5 50 L 1 0" transform="rotate(213.4688960406137 100 100) translate(100 100)" fill="none" stroke="rgb(0, 0, 0)"/><path d="M 0 0 L 0.5 50 L 1 0" transform="rotate(234.8157856446751 100 100) translate(100 100)" fill="none" stroke="rgb(0, 0, 0)"/><path d="M 0 0 L 0.5 50 L 1 0" transform="rotate(256.16267524873643 100 100) translate(100 100)" fill="none" stroke="rgb(0, 0, 0)"/><path d="M 0 0 L 0.5 50 L 1 0" transform="rotate(277.50956485279784 100 100) translate(100 100)" fill="none" stroke="rgb(0, 0, 0)"/><path d="M 0 0 L 0.5 50 L 1 0" transform="rotate(298.8564544568592 100 100) translate(100 100)" fill="none" stroke="rgb(0, 0, 0)"/><path d="M 0 0 L 0.5 50 L 1 0" transform="rotate(320.2033440609206 100 100) translate(100 100)" fill="none" stroke="rgb(0, 0, 0)"/><path d="M 0 0 L 0.5 50 L 1 0" transform="rotate(341.55023366498193 100 100) translate(100 100)" fill="none" stroke="rgb(0, 0, 0)"/></g></svg>