<?xml version="1.0" standalone="no"?><!DOCTYPE svg PUBLIC "-//W3C//DTD SVG 1.1//EN" "http://www.w3.org/Graphics/SVG/1.1/DTD/svg11.dtd"><svg width="500" height="400" version="1.1" xmlns="http://www.w3.org/2000/svg" xmlns:xlink="http://www.w3.org/1999/xlink"><defs xmlns="http://www.w3.org/1999/xhtml"><style type="text/css"><![CDATA[
body { background-color: rgb(234, 234, 234); }
#canvas svg { box-shadow: rgba(0, 0, 0, 0.0588235) 0px 3px 2px 0px, rgba(0, 0, 0, 0.0196078) -1px -1px 1px 0px inset; border-width: 1px; border-style: solid; border-color: rgb(226, 226, 226) rgb(226, 226, 226) rgb(206, 206, 206); background-color: white; }]]></style></defs><path d="M 0 0 C 0 0 86.24268237035722 -30.516307638026774 167 0 C 167 -20.706822094507515 252.89928884012625 -1.3125873636454344 334 0 C 334 -27.755811531096697 350.59763175668195 1.1388933286070824 500 0" transform="translate(0 100)" fill="none" stroke="rgb(0, 0, 0)" stroke-width="1"/><path d="M 0 0 C 0 0 34.29680878762156 -15.906010405160487 167 0 C 167 27.29601701721549 298.56901267776266 36.69313727878034 334 0 C 334 -10.04418630618602 389.84644145239145 -37.408780376426876 500 0" transform="translate(0 300)" fill="none" stroke="rgb(0, 0, 0)" stroke-width="1"/><g><path d="M 0 0 L 2 160 L 4 0" transform="translate(250 185)" fill="none" stroke="rgb(3, 3, 3)"/><path d="M 0 0 L 2 160 L 4 0" transform="rotate(45.777214023716006 250 185) translate(250 185)" fill="none" stroke="rgb(3, 3, 3)"/><path d="M 0 0 L 2 160 L 4 0" transform="rotate(91.55442804743201 250 185) translate(250 185)" fill="none" stroke="rgb(3, 3, 3)"/><path d="M 0 0 L 2 160 L 4 0" transform="rotate(137.33164207114802 250 185) translate(250 185)" fill="none" stroke="rgb(3, 3, 3)"/><path d="M 0 0 L 2 160 L 4 0" transform="rotate(183.10885609486402 250 185) translate(250 185)" fill="none" stroke="rgb(3, 3, 3)"/><path d="M 0 0 L 2 160 L 4 0" transform="rotate(228.88607011858002 250 185) translate(250 185)" fill="none" stroke="rgb(3, 3, 3)"/><path d="M 0 0 L 2 160 L 4 0" transform="rotate(274.66328414229605 250 185) translate(250 185)" fill="none" stroke="rgb(3, 3, 3)"/><path d="M 0 0 L 2 160 L 4 0" transform="rotate(320.44049816601205 250 185) translate(250 185)" fill="none" stroke="rgb(3, 3, 3)"/></g></svg>