<?xml version="1.0" standalone="no"?><!DOCTYPE svg PUBLIC "-//W3C//DTD SVG 1.1//EN" "http://www.w3.org/Graphics/SVG/1.1/DTD/svg11.dtd"><svg width="400" height="500" version="1.1" xmlns:xlink="http://www.w3.org/1999/xlink" xmlns="http://www.w3.org/2000/svg"><defs xmlns="http://www.w3.org/1999/xhtml"><style type="text/css"><![CDATA[
body { background-color: rgb(234, 234, 234); }
#canvas svg { box-shadow: rgba(0, 0, 0, 0.0588235) 0px 3px 2px 0px, rgba(0, 0, 0, 0.0196078) -1px -1px 1px 0px inset; border-width: 1px; border-style: solid; border-color: rgb(226, 226, 226) rgb(226, 226, 226) rgb(206, 206, 206); background-color: white; }]]></style></defs><defs xmlns="http://www.w3.org/1999/xhtml"><style type="text/css"></style></defs><rect x="10" y="10" width="380" height="480" fill="rgb(255, 255, 255)" stroke="rgb(0, 0, 0)"/><path d="M 0 0 C 0 0 65.02223854884505 -12.836214597336948 100 0 C 5.000131297856569 -50.048564886674285 5.000131297856569 0.6608204683288932 250 0 C 65.02223854884505 -76.06948686297983 5.000131297856569 19.24194695893675 400 0" transform="translate(0 250)" fill="none" stroke="rgb(0, 0, 0)" stroke-width="1"/><path d="M 0 0 C 0 0 66.34013622999191 -21.574202156625688 100 0 C 11.675732582807541 35.55307202041149 11.675732582807541 -13.956247176975012 250 0 C 66.34013622999191 -51.14269502228126 11.675732582807541 -21.918942383490503 400 0" transform="translate(0 250)" fill="none" stroke="rgb(0, 0, 0)" stroke-width="1"/><path d="M 0 0 C 0 0 88.6569426394999 16.132372338324785 100 0 C 73.042699880898 85.88148416019976 73.042699880898 47.03620907384902 250 0 C 88.6569426394999 -23.26113343006 73.042699880898 -48.879792634397745 400 0" transform="translate(0 250)" fill="none" stroke="rgb(0, 0, 0)" stroke-width="1"/><g><path d="M 0 0 L 0.75 75 L 1.5 0" transform="translate(100 100)" fill="none" stroke="rgb(0, 0, 0)"/><path d="M 0 0 L 0.75 75 L 1.5 0" transform="rotate(18.453427582011145 100 100) translate(100 100)" fill="none" stroke="rgb(0, 0, 0)"/><path d="M 0 0 L 0.75 75 L 1.5 0" transform="rotate(36.90685516402229 100 100) translate(100 100)" fill="none" stroke="rgb(0, 0, 0)"/><path d="M 0 0 L 0.75 75 L 1.5 0" transform="rotate(55.360282746033434 100 100) translate(100 100)" fill="none" stroke="rgb(0, 0, 0)"/><path d="M 0 0 L 0.75 75 L 1.5 0" transform="rotate(73.81371032804458 100 100) translate(100 100)" fill="none" stroke="rgb(0, 0, 0)"/><path d="M 0 0 L 0.75 75 L 1.5 0" transform="rotate(92.26713791005572 100 100) translate(100 100)" fill="none" stroke="rgb(0, 0, 0)"/><path d="M 0 0 L 0.75 75 L 1.5 0" transform="rotate(110.72056549206687 100 100) translate(100 100)" fill="none" stroke="rgb(0, 0, 0)"/><path d="M 0 0 L 0.75 75 L 1.5 0" transform="rotate(129.173993074078 100 100) translate(100 100)" fill="none" stroke="rgb(0, 0, 0)"/><path d="M 0 0 L 0.75 75 L 1.5 0" transform="rotate(147.62742065608916 100 100) translate(100 100)" fill="none" stroke="rgb(0, 0, 0)"/><path d="M 0 0 L 0.75 75 L 1.5 0" transform="rotate(166.08084823810032 100 100) translate(100 100)" fill="none" stroke="rgb(0, 0, 0)"/><path d="M 0 0 L 0.75 75 L 1.5 0" transform="rotate(184.53427582011145 100 100) translate(100 100)" fill="none" stroke="rgb(0, 0, 0)"/><path d="M 0 0 L 0.75 75 L 1.5 0" transform="rotate(202.98770340212258 100 100) translate(100 100)" fill="none" stroke="rgb(0, 0, 0)"/><path d="M 0 0 L 0.75 75 L 1.5 0" transform="rotate(221.44113098413374 100 100) translate(100 100)" fill="none" stroke="rgb(0, 0, 0)"/><path d="M 0 0 L 0.75 75 L 1.5 0" transform="rotate(239.8945585661449 100 100) translate(100 100)" fill="none" stroke="rgb(0, 0, 0)"/><path d="M 0 0 L 0.75 75 L 1.5 0" transform="rotate(258.347986148156 100 100) translate(100 100)" fill="none" stroke="rgb(0, 0, 0)"/><path d="M 0 0 L 0.75 75 L 1.5 0" transform="rotate(276.80141373016716 100 100) translate(100 100)" fill="none" stroke="rgb(0, 0, 0)"/><path d="M 0 0 L 0.75 75 L 1.5 0" transform="rotate(295.2548413121783 100 100) translate(100 100)" fill="none" stroke="rgb(0, 0, 0)"/><path d="M 0 0 L 0.75 75 L 1.5 0" transform="rotate(313.7082688941895 100 100) translate(100 100)" fill="none" stroke="rgb(0, 0, 0)"/><path d="M 0 0 L 0.75 75 L 1.5 0" transform="rotate(332.16169647620063 100 100) translate(100 100)" fill="none" stroke="rgb(0, 0, 0)"/><path d="M 0 0 L 0.75 75 L 1.5 0" transform="rotate(350.61512405821173 100 100) translate(100 100)" fill="none" stroke="rgb(0, 0, 0)"/></g></svg>