<?xml version="1.0" standalone="no"?><!DOCTYPE svg PUBLIC "-//W3C//DTD SVG 1.1//EN" "http://www.w3.org/Graphics/SVG/1.1/DTD/svg11.dtd"><svg width="500" height="400" version="1.1" xmlns="http://www.w3.org/2000/svg" xmlns:xlink="http://www.w3.org/1999/xlink"><defs xmlns="http://www.w3.org/1999/xhtml"><style type="text/css"><![CDATA[
body { background-color: rgb(234, 234, 234); }
#canvas svg { box-shadow: rgba(0, 0, 0, 0.0588235) 0px 3px 2px 0px, rgba(0, 0, 0, 0.0196078) -1px -1px 1px 0px inset; border-width: 1px; border-style: solid; border-color: rgb(226, 226, 226) rgb(226, 226, 226) rgb(206, 206, 206); background-color: white; }]]></style></defs><path d="M 0 0 C 0 0 64.55537646543235 8.396392385475338 167 0 C 167 49.065135419368744 266.0395229817368 -1.1433548759669065 334 0 C 334 22.944738972000778 366.2518142373301 -46.349762473255396 500 0" transform="translate(0 100)" fill="none" stroke="rgb(0, 0, 0)" stroke-width="1"/><path d="M 0 0 C 0 0 13.24254700448364 38.83499023504555 167 0 C 167 19.412475870922208 271.9195850309916 -42.10879988968372 334 0 C 334 40.466219023801386 390.63798713032156 18.513242295011878 500 0" transform="translate(0 300)" fill="none" stroke="rgb(0, 0, 0)" stroke-width="1"/><g><path d="M 0 0 L 2 160 L 4 0" transform="translate(250 185)" fill="none" stroke="rgb(3, 3, 3)"/><path d="M 0 0 L 2 160 L 4 0" transform="rotate(82.8223465503979 250 185) translate(250 185)" fill="none" stroke="rgb(3, 3, 3)"/><path d="M 0 0 L 2 160 L 4 0" transform="rotate(165.6446931007958 250 185) translate(250 185)" fill="none" stroke="rgb(3, 3, 3)"/><path d="M 0 0 L 2 160 L 4 0" transform="rotate(248.4670396511937 250 185) translate(250 185)" fill="none" stroke="rgb(3, 3, 3)"/><path d="M 0 0 L 2 160 L 4 0" transform="rotate(331.2893862015916 250 185) translate(250 185)" fill="none" stroke="rgb(3, 3, 3)"/></g></svg>