<?xml version="1.0" standalone="no"?><!DOCTYPE svg PUBLIC "-//W3C//DTD SVG 1.1//EN" "http://www.w3.org/Graphics/SVG/1.1/DTD/svg11.dtd"><svg width="500" height="400" version="1.1" xmlns="http://www.w3.org/2000/svg" xmlns:xlink="http://www.w3.org/1999/xlink"><defs xmlns="http://www.w3.org/1999/xhtml"><style type="text/css"><![CDATA[
body { background-color: rgb(234, 234, 234); }
#canvas svg { box-shadow: rgba(0, 0, 0, 0.0588235) 0px 3px 2px 0px, rgba(0, 0, 0, 0.0196078) -1px -1px 1px 0px inset; border-width: 1px; border-style: solid; border-color: rgb(226, 226, 226) rgb(226, 226, 226) rgb(206, 206, 206); background-color: white; }]]></style></defs><path d="M 0 0 C 0 0 80.22894125897437 27.528604306280613 167 0 C 167 41.593182436190546 250.27686541434377 34.39678999129683 334 0 C 334 -14.05740084592253 353.8114160997793 3.1306693563237786 500 0" transform="translate(0 280)" fill="none" stroke="rgb(0, 0, 0)" stroke-width="1"/><path d="M 0 0 C 0 0 35.68144794553518 49.33767730835825 167 0 C 167 -3.0333259608596563 298.85127381421626 14.517698111012578 334 0 C 334 30.015597050078213 365.58666933560744 -43.577955407090485 500 0" transform="translate(0 280)" fill="none" stroke="rgb(0, 0, 0)" stroke-width="1"/><path d="M 0 0 C 0 0 65.6110851559788 43.70556981302798 167 0 C 167 37.080580089241266 263.4785198722966 36.94633997511119 334 0 C 334 -45.23225170560181 381.6352055291645 41.229078685864806 500 0" transform="translate(0 280)" fill="none" stroke="rgb(0, 0, 0)" stroke-width="1"/><g><path d="M 0 0 L 1 80 L 2 0" transform="translate(150 150)" fill="none" stroke="rgb(0, 0, 0)"/><path d="M 0 0 L 1 80 L 2 0" transform="rotate(54.83640612017991 150 150) translate(150 150)" fill="none" stroke="rgb(0, 0, 0)"/><path d="M 0 0 L 1 80 L 2 0" transform="rotate(109.67281224035982 150 150) translate(150 150)" fill="none" stroke="rgb(0, 0, 0)"/><path d="M 0 0 L 1 80 L 2 0" transform="rotate(164.50921836053973 150 150) translate(150 150)" fill="none" stroke="rgb(0, 0, 0)"/><path d="M 0 0 L 1 80 L 2 0" transform="rotate(219.34562448071964 150 150) translate(150 150)" fill="none" stroke="rgb(0, 0, 0)"/><path d="M 0 0 L 1 80 L 2 0" transform="rotate(274.18203060089957 150 150) translate(150 150)" fill="none" stroke="rgb(0, 0, 0)"/><path d="M 0 0 L 1 80 L 2 0" transform="rotate(329.01843672107947 150 150) translate(150 150)" fill="none" stroke="rgb(0, 0, 0)"/></g><polygon points="10 10 490 10 490 390 10 390 10 10" fill="none" stroke="rgb(0, 0, 0)" stroke-width="1"/></svg>