<?xml version="1.0" standalone="no"?><!DOCTYPE svg PUBLIC "-//W3C//DTD SVG 1.1//EN" "http://www.w3.org/Graphics/SVG/1.1/DTD/svg11.dtd"><svg width="400" height="500" version="1.1" xmlns="http://www.w3.org/2000/svg" xmlns:xlink="http://www.w3.org/1999/xlink"><defs xmlns="http://www.w3.org/1999/xhtml"><style type="text/css"><![CDATA[
body { background-color: rgb(234, 234, 234); }
#canvas svg { box-shadow: rgba(0, 0, 0, 0.0588235) 0px 3px 2px 0px, rgba(0, 0, 0, 0.0196078) -1px -1px 1px 0px inset; border-width: 1px; border-style: solid; border-color: rgb(226, 226, 226) rgb(226, 226, 226) rgb(206, 206, 206); background-color: white; }]]></style></defs><rect x="10" y="10" width="380" height="480" fill="rgb(255, 255, 255)" stroke="rgb(0, 0, 0)"/><path d="M 0 0 C 0 0 30.47329107299447 46.232833596877754 100 0 C 264.7081285715103 31.636633025482297 264.7081285715103 -20.19154049921781 250 0 C 30.47329107299447 45.24786595720798 264.7081285715103 17.87028016988188 400 0" transform="translate(0 250)" fill="none" stroke="rgb(0, 0, 0)" stroke-width="1"/><path d="M 0 0 C 0 0 26.93451765924692 -23.950445232912898 100 0 C 397.3240011371672 -51.28895454108715 397.3240011371672 17.57807859685272 250 0 C 26.93451765924692 -12.375424150377512 397.3240011371672 10.986475483514369 400 0" transform="translate(0 250)" fill="none" stroke="rgb(0, 0, 0)" stroke-width="1"/><path d="M 0 0 C 0 0 56.40147864818573 -25.140055548399687 100 0 C 345.1497321948409 25.954632135108113 345.1497321948409 -42.347663501277566 250 0 C 56.40147864818573 24.933066125959158 345.1497321948409 7.59840733371675 400 0" transform="translate(0 250)" fill="none" stroke="rgb(0, 0, 0)" stroke-width="1"/><g><path d="M 0 0 L 0.75 75 L 1.5 0" transform="translate(100 100)" fill="none" stroke="rgb(0, 0, 0)"/><path d="M 0 0 L 0.75 75 L 1.5 0" transform="rotate(85.74090517747457 100 100) translate(100 100)" fill="none" stroke="rgb(0, 0, 0)"/><path d="M 0 0 L 0.75 75 L 1.5 0" transform="rotate(171.48181035494915 100 100) translate(100 100)" fill="none" stroke="rgb(0, 0, 0)"/><path d="M 0 0 L 0.75 75 L 1.5 0" transform="rotate(257.2227155324237 100 100) translate(100 100)" fill="none" stroke="rgb(0, 0, 0)"/><path d="M 0 0 L 0.75 75 L 1.5 0" transform="rotate(342.9636207098983 100 100) translate(100 100)" fill="none" stroke="rgb(0, 0, 0)"/></g></svg>