<?xml version="1.0" standalone="no"?><!DOCTYPE svg PUBLIC "-//W3C//DTD SVG 1.1//EN" "http://www.w3.org/Graphics/SVG/1.1/DTD/svg11.dtd"><svg width="400" height="500" version="1.1" xmlns="http://www.w3.org/2000/svg" xmlns:xlink="http://www.w3.org/1999/xlink"><defs xmlns="http://www.w3.org/1999/xhtml"><style type="text/css"><![CDATA[
body { background-color: rgb(234, 234, 234); }
#canvas svg { box-shadow: rgba(0, 0, 0, 0.0588235) 0px 3px 2px 0px, rgba(0, 0, 0, 0.0196078) -1px -1px 1px 0px inset; border-width: 1px; border-style: solid; border-color: rgb(226, 226, 226) rgb(226, 226, 226) rgb(206, 206, 206); background-color: white; }]]></style></defs><rect x="10" y="10" width="380" height="480" fill="rgb(255, 255, 255)" stroke="rgb(0, 0, 0)"/><path d="M 0 0 C 0 0 26.632259842008352 -27.238062862306833 100 0 C 352.5563072413206 -29.917333694174886 352.5563072413206 8.824090170674026 250 0 C 26.632259842008352 -82.9192413832061 352.5563072413206 -26.343211508356035 400 0" transform="translate(0 250)" fill="none" stroke="rgb(0, 0, 0)" stroke-width="1"/><path d="M 0 0 C 0 0 49.22860987484455 -16.177899995818734 100 0 C 9.058955870568752 49.71642722375691 9.058955870568752 -18.65145778283477 250 0 C 49.22860987484455 16.846915299538523 9.058955870568752 -0.29235370457172394 400 0" transform="translate(0 250)" fill="none" stroke="rgb(0, 0, 0)" stroke-width="1"/><path d="M 0 0 C 0 0 94.07196527346969 -19.413835578598082 100 0 C 291.51231003925204 -61.25669400207698 291.51231003925204 -40.926410793326795 250 0 C 94.07196527346969 -87.00820099329576 291.51231003925204 24.257976654917 400 0" transform="translate(0 250)" fill="none" stroke="rgb(0, 0, 0)" stroke-width="1"/><g><path d="M 0 0 L 0.5 50 L 1 0" transform="translate(100 100)" fill="none" stroke="rgb(0, 0, 0)"/><path d="M 0 0 L 0.5 50 L 1 0" transform="rotate(99.79519160990758 100 100) translate(100 100)" fill="none" stroke="rgb(0, 0, 0)"/><path d="M 0 0 L 0.5 50 L 1 0" transform="rotate(199.59038321981515 100 100) translate(100 100)" fill="none" stroke="rgb(0, 0, 0)"/><path d="M 0 0 L 0.5 50 L 1 0" transform="rotate(299.3855748297227 100 100) translate(100 100)" fill="none" stroke="rgb(0, 0, 0)"/></g></svg>