<?xml version="1.0" standalone="no"?><!DOCTYPE svg PUBLIC "-//W3C//DTD SVG 1.1//EN" "http://www.w3.org/Graphics/SVG/1.1/DTD/svg11.dtd"><svg width="500" height="400" version="1.1" xmlns="http://www.w3.org/2000/svg" xmlns:xlink="http://www.w3.org/1999/xlink"><defs xmlns="http://www.w3.org/1999/xhtml"><style type="text/css"><![CDATA[
body { background-color: rgb(234, 234, 234); }
#canvas svg { box-shadow: rgba(0, 0, 0, 0.0588235) 0px 3px 2px 0px, rgba(0, 0, 0, 0.0196078) -1px -1px 1px 0px inset; border-width: 1px; border-style: solid; border-color: rgb(226, 226, 226) rgb(226, 226, 226) rgb(206, 206, 206); background-color: white; }]]></style></defs><path d="M 0 0 C 0 0 43.866952788084745 -40.711669623851776 167 0 C 167 30.779583984985948 253.08334120782092 36.26903616823256 334 0 C 334 44.2158781690523 350.50760679878294 -46.0626465966925 500 0" transform="translate(0 150)" fill="none" stroke="rgb(0, 0, 0)" stroke-width="1"/><path d="M 0 0 C 0 0 90.5155387474224 20.87617418728769 167 0 C 167 -15.199349727481604 259.1754450695589 42.47478854376823 334 0 C 334 46.29272560123354 373.00278092734516 17.997890175320208 500 0" transform="translate(0 250)" fill="none" stroke="rgb(0, 0, 0)" stroke-width="1"/><g><path d="M 0 0 L 2 160 L 4 0" transform="translate(250 185)" fill="none" stroke="rgb(3, 3, 3)"/><path d="M 0 0 L 2 160 L 4 0" transform="rotate(65.92240350863335 250 185) translate(250 185)" fill="none" stroke="rgb(3, 3, 3)"/><path d="M 0 0 L 2 160 L 4 0" transform="rotate(131.8448070172667 250 185) translate(250 185)" fill="none" stroke="rgb(3, 3, 3)"/><path d="M 0 0 L 2 160 L 4 0" transform="rotate(197.76721052590005 250 185) translate(250 185)" fill="none" stroke="rgb(3, 3, 3)"/><path d="M 0 0 L 2 160 L 4 0" transform="rotate(263.6896140345334 250 185) translate(250 185)" fill="none" stroke="rgb(3, 3, 3)"/><path d="M 0 0 L 2 160 L 4 0" transform="rotate(329.61201754316676 250 185) translate(250 185)" fill="none" stroke="rgb(3, 3, 3)"/></g></svg>