<?xml version="1.0" standalone="no"?><!DOCTYPE svg PUBLIC "-//W3C//DTD SVG 1.1//EN" "http://www.w3.org/Graphics/SVG/1.1/DTD/svg11.dtd"><svg width="500" height="400" version="1.1" xmlns="http://www.w3.org/2000/svg" xmlns:xlink="http://www.w3.org/1999/xlink"><defs xmlns="http://www.w3.org/1999/xhtml"><style type="text/css"><![CDATA[
body { background-color: rgb(234, 234, 234); }
#canvas svg { box-shadow: rgba(0, 0, 0, 0.0588235) 0px 3px 2px 0px, rgba(0, 0, 0, 0.0196078) -1px -1px 1px 0px inset; border-width: 1px; border-style: solid; border-color: rgb(226, 226, 226) rgb(226, 226, 226) rgb(206, 206, 206); background-color: white; }]]></style></defs><path d="M 0 0 C 0 0 13.366153510287404 -32.71193592809141 167 0 C 167 -21.810303698293865 255.43557485798374 -30.251973308622837 334 0 C 334 45.575064863078296 352.9318507295102 -27.590369014069438 500 0" transform="translate(0 100)" fill="none" stroke="rgb(0, 0, 0)" stroke-width="1"/><path d="M 0 0 C 0 0 84.73887124564499 -45.44684838037938 167 0 C 167 43.84479762520641 255.20530499052256 -34.44714804645628 334 0 C 334 -6.747799646109343 356.34071656968445 22.023630305193365 500 0" transform="translate(0 300)" fill="none" stroke="rgb(0, 0, 0)" stroke-width="1"/><g><path d="M 0 0 L 2 160 L 4 0" transform="translate(250 185)" fill="none" stroke="rgb(3, 3, 3)"/><path d="M 0 0 L 2 160 L 4 0" transform="rotate(72.63313793045923 250 185) translate(250 185)" fill="none" stroke="rgb(3, 3, 3)"/><path d="M 0 0 L 2 160 L 4 0" transform="rotate(145.26627586091846 250 185) translate(250 185)" fill="none" stroke="rgb(3, 3, 3)"/><path d="M 0 0 L 2 160 L 4 0" transform="rotate(217.8994137913777 250 185) translate(250 185)" fill="none" stroke="rgb(3, 3, 3)"/><path d="M 0 0 L 2 160 L 4 0" transform="rotate(290.5325517218369 250 185) translate(250 185)" fill="none" stroke="rgb(3, 3, 3)"/></g></svg>