<?xml version="1.0" standalone="no"?><!DOCTYPE svg PUBLIC "-//W3C//DTD SVG 1.1//EN" "http://www.w3.org/Graphics/SVG/1.1/DTD/svg11.dtd"><svg width="400" height="500" version="1.1" xmlns="http://www.w3.org/2000/svg" xmlns:xlink="http://www.w3.org/1999/xlink"><defs xmlns="http://www.w3.org/1999/xhtml"><style type="text/css"><![CDATA[
body { background-color: rgb(234, 234, 234); }
#canvas svg { box-shadow: rgba(0, 0, 0, 0.0588235) 0px 3px 2px 0px, rgba(0, 0, 0, 0.0196078) -1px -1px 1px 0px inset; border-width: 1px; border-style: solid; border-color: rgb(226, 226, 226) rgb(226, 226, 226) rgb(206, 206, 206); background-color: white; }]]></style></defs><g><path d="M 0 0 L 1.25 125 L 2.5 0" transform="translate(200 250)" fill="none" stroke="rgb(0, 0, 0)"/><path d="M 0 0 L 1.25 125 L 2.5 0" transform="rotate(23.93310264870209 200 250) translate(200 250)" fill="none" stroke="rgb(0, 0, 0)"/><path d="M 0 0 L 1.25 125 L 2.5 0" transform="rotate(47.86620529740418 200 250) translate(200 250)" fill="none" stroke="rgb(0, 0, 0)"/><path d="M 0 0 L 1.25 125 L 2.5 0" transform="rotate(71.79930794610627 200 250) translate(200 250)" fill="none" stroke="rgb(0, 0, 0)"/><path d="M 0 0 L 1.25 125 L 2.5 0" transform="rotate(95.73241059480836 200 250) translate(200 250)" fill="none" stroke="rgb(0, 0, 0)"/><path d="M 0 0 L 1.25 125 L 2.5 0" transform="rotate(119.66551324351045 200 250) translate(200 250)" fill="none" stroke="rgb(0, 0, 0)"/><path d="M 0 0 L 1.25 125 L 2.5 0" transform="rotate(143.59861589221254 200 250) translate(200 250)" fill="none" stroke="rgb(0, 0, 0)"/><path d="M 0 0 L 1.25 125 L 2.5 0" transform="rotate(167.53171854091462 200 250) translate(200 250)" fill="none" stroke="rgb(0, 0, 0)"/><path d="M 0 0 L 1.25 125 L 2.5 0" transform="rotate(191.4648211896167 200 250) translate(200 250)" fill="none" stroke="rgb(0, 0, 0)"/><path d="M 0 0 L 1.25 125 L 2.5 0" transform="rotate(215.3979238383188 200 250) translate(200 250)" fill="none" stroke="rgb(0, 0, 0)"/><path d="M 0 0 L 1.25 125 L 2.5 0" transform="rotate(239.3310264870209 200 250) translate(200 250)" fill="none" stroke="rgb(0, 0, 0)"/><path d="M 0 0 L 1.25 125 L 2.5 0" transform="rotate(263.264129135723 200 250) translate(200 250)" fill="none" stroke="rgb(0, 0, 0)"/><path d="M 0 0 L 1.25 125 L 2.5 0" transform="rotate(287.19723178442507 200 250) translate(200 250)" fill="none" stroke="rgb(0, 0, 0)"/><path d="M 0 0 L 1.25 125 L 2.5 0" transform="rotate(311.13033443312713 200 250) translate(200 250)" fill="none" stroke="rgb(0, 0, 0)"/><path d="M 0 0 L 1.25 125 L 2.5 0" transform="rotate(335.06343708182925 200 250) translate(200 250)" fill="none" stroke="rgb(0, 0, 0)"/><path d="M 0 0 L 1.25 125 L 2.5 0" transform="rotate(358.99653973053137 200 250) translate(200 250)" fill="none" stroke="rgb(0, 0, 0)"/></g></svg>