<?xml version="1.0" standalone="no"?><!DOCTYPE svg PUBLIC "-//W3C//DTD SVG 1.1//EN" "http://www.w3.org/Graphics/SVG/1.1/DTD/svg11.dtd"><svg width="500" height="400" version="1.1" xmlns="http://www.w3.org/2000/svg" xmlns:xlink="http://www.w3.org/1999/xlink"><defs xmlns="http://www.w3.org/1999/xhtml"><style type="text/css"><![CDATA[
body { background-color: rgb(234, 234, 234); }
#canvas svg { box-shadow: rgba(0, 0, 0, 0.0588235) 0px 3px 2px 0px, rgba(0, 0, 0, 0.0196078) -1px -1px 1px 0px inset; border-width: 1px; border-style: solid; border-color: rgb(226, 226, 226) rgb(226, 226, 226) rgb(206, 206, 206); background-color: white; }]]></style></defs><path d="M 0 0 C 0 0 57.26558775641024 -38.66352492477745 167 0 C 167 -41.53257296420634 290.45387693913653 -33.08504580054432 334 0 C 334 -47.00866099447012 367.1304730582051 38.08107506483793 500 0" transform="translate(0 100)" fill="none" stroke="rgb(0, 0, 0)" stroke-width="1"/><path d="M 0 0 C 0 0 77.58828622754663 16.705706855282187 167 0 C 167 -20.449586329050362 272.08863084670156 -45.50103729125112 334 0 C 334 -33.65915371105075 375.6827487843111 -29.503218387253582 500 0" transform="translate(0 300)" fill="none" stroke="rgb(0, 0, 0)" stroke-width="1"/><g><path d="M 0 0 L 2 160 L 4 0" transform="translate(250 185)" fill="none" stroke="rgb(3, 3, 3)"/><path d="M 0 0 L 2 160 L 4 0" transform="rotate(25.252743827938602 250 185) translate(250 185)" fill="none" stroke="rgb(3, 3, 3)"/><path d="M 0 0 L 2 160 L 4 0" transform="rotate(50.505487655877204 250 185) translate(250 185)" fill="none" stroke="rgb(3, 3, 3)"/><path d="M 0 0 L 2 160 L 4 0" transform="rotate(75.7582314838158 250 185) translate(250 185)" fill="none" stroke="rgb(3, 3, 3)"/><path d="M 0 0 L 2 160 L 4 0" transform="rotate(101.01097531175441 250 185) translate(250 185)" fill="none" stroke="rgb(3, 3, 3)"/><path d="M 0 0 L 2 160 L 4 0" transform="rotate(126.26371913969301 250 185) translate(250 185)" fill="none" stroke="rgb(3, 3, 3)"/><path d="M 0 0 L 2 160 L 4 0" transform="rotate(151.5164629676316 250 185) translate(250 185)" fill="none" stroke="rgb(3, 3, 3)"/><path d="M 0 0 L 2 160 L 4 0" transform="rotate(176.7692067955702 250 185) translate(250 185)" fill="none" stroke="rgb(3, 3, 3)"/><path d="M 0 0 L 2 160 L 4 0" transform="rotate(202.02195062350881 250 185) translate(250 185)" fill="none" stroke="rgb(3, 3, 3)"/><path d="M 0 0 L 2 160 L 4 0" transform="rotate(227.27469445144743 250 185) translate(250 185)" fill="none" stroke="rgb(3, 3, 3)"/><path d="M 0 0 L 2 160 L 4 0" transform="rotate(252.52743827938602 250 185) translate(250 185)" fill="none" stroke="rgb(3, 3, 3)"/><path d="M 0 0 L 2 160 L 4 0" transform="rotate(277.7801821073246 250 185) translate(250 185)" fill="none" stroke="rgb(3, 3, 3)"/><path d="M 0 0 L 2 160 L 4 0" transform="rotate(303.0329259352632 250 185) translate(250 185)" fill="none" stroke="rgb(3, 3, 3)"/><path d="M 0 0 L 2 160 L 4 0" transform="rotate(328.28566976320184 250 185) translate(250 185)" fill="none" stroke="rgb(3, 3, 3)"/><path d="M 0 0 L 2 160 L 4 0" transform="rotate(353.5384135911404 250 185) translate(250 185)" fill="none" stroke="rgb(3, 3, 3)"/></g></svg>