<?xml version="1.0" standalone="no"?><!DOCTYPE svg PUBLIC "-//W3C//DTD SVG 1.1//EN" "http://www.w3.org/Graphics/SVG/1.1/DTD/svg11.dtd"><svg width="400" height="500" version="1.1" xmlns="http://www.w3.org/2000/svg" xmlns:xlink="http://www.w3.org/1999/xlink"><defs xmlns="http://www.w3.org/1999/xhtml"><style type="text/css"><![CDATA[
body { background-color: rgb(234, 234, 234); }
#canvas svg { box-shadow: rgba(0, 0, 0, 0.0588235) 0px 3px 2px 0px, rgba(0, 0, 0, 0.0196078) -1px -1px 1px 0px inset; border-width: 1px; border-style: solid; border-color: rgb(226, 226, 226) rgb(226, 226, 226) rgb(206, 206, 206); background-color: white; }]]></style></defs><rect x="10" y="10" width="380" height="480" fill="rgb(255, 255, 255)" stroke="rgb(0, 0, 0)"/><path d="M 0 0 C 0 0 46.744326055049896 -26.54223390854895 100 0 C 53.06664453819394 60.72904076427221 53.06664453819394 -26.528336969204247 250 0 C 46.744326055049896 -50.99077142076567 53.06664453819394 4.143466288223863 400 0" transform="translate(0 250)" fill="none" stroke="rgb(0, 0, 0)" stroke-width="1"/><path d="M 0 0 C 0 0 47.651160415261984 -9.617387922480702 100 0 C 200.29719239100814 45.731071988120675 200.29719239100814 -46.99180463794619 250 0 C 47.651160415261984 -42.21158451400697 200.29719239100814 42.05953183118254 400 0" transform="translate(0 250)" fill="none" stroke="rgb(0, 0, 0)" stroke-width="1"/><path d="M 0 0 C 0 0 67.65483843162656 -26.380240870639682 100 0 C 132.592554949224 -95.87299129925668 132.592554949224 -44.384172512218356 250 0 C 67.65483843162656 -19.659569789655507 132.592554949224 42.97795353922993 400 0" transform="translate(0 250)" fill="none" stroke="rgb(0, 0, 0)" stroke-width="1"/></svg>