<?xml version="1.0" standalone="no"?><!DOCTYPE svg PUBLIC "-//W3C//DTD SVG 1.1//EN" "http://www.w3.org/Graphics/SVG/1.1/DTD/svg11.dtd"><svg width="400" height="500" version="1.1" xmlns="http://www.w3.org/2000/svg" xmlns:xlink="http://www.w3.org/1999/xlink"><defs xmlns="http://www.w3.org/1999/xhtml"><style type="text/css"><![CDATA[
body { background-color: rgb(234, 234, 234); }
#canvas svg { box-shadow: rgba(0, 0, 0, 0.0588235) 0px 3px 2px 0px, rgba(0, 0, 0, 0.0196078) -1px -1px 1px 0px inset; border-width: 1px; border-style: solid; border-color: rgb(226, 226, 226) rgb(226, 226, 226) rgb(206, 206, 206); background-color: white; }]]></style></defs><g transform="translate(50 50)"/><g><path d="M 230 225 L 230 255 Q 252 275 270 249" fill="none" stroke="rgb(48, 64, 16)" stroke-width="8"/><path d="M 0 0 L 0 0 L 0 0 L 0 0 L 0 0 L 0 0 L 0 0 L 0 0 L 0 0 L 0 0 L 0 0 L 0 0 L 0 0 L 0 0 L 0 0 L 0 0 L 0 0 L 0 0 L 0 0 L 0 0 L 0 0 L 0 0 L 0 0 L 0 0 L 0 0 L 0 0 L 0 0 L 0 0 L 0 0 L 0 0 L 0 0 L 0 0 L 0 0 L 0 0 L 0 0 L 0 0 L 0 0 L 0 0 L 0 0 L 0 0 L 0 0 L 0 0 L 0 0 L 0 0 L 0 0 L 0 0 L 0 0 L 0 0 L 0 0 L 0 0 L 0 0 L 0 0 L 0 0 L 0 0 L 0 0 L 0 0 L 0 0 L 0 0 L 0 0 L 0 0 L 0 0 L 0 0 L 0 0 L 0 0 L 0 0 L 0 0 L 0 0 L 0 0 L 0 0 L 0 0 L 0 0 L 0 0 L 0 0 L 0 0 L 0 0 L 0 0 L 0 0 L 0 0 L 0 0 L 0 0 L 0 0 L 0 0 L 0 0 L 0 0 L 0 0 L 0 0 L 0 0 L 0 0 L 0 0 L 0 0 L 0 0 L 0 0 L 0 0 L 0 0 L 0 0 L 0 0 L 0 0 L 0 0 L 0 0 L 0 0 L 0 0 L 0 0 L 0 0 L 0 0 L 0 0 L 0 0 L 0 0 L 0 0 L 0 0 L 0 0 L 0 0 L 0 0 L 0 0 L 0 0 L 0 0 L 0 0 L 0 0 L 0 0 L 0 0 L 0 0 L 0 0 L 0 0 L 0 0 L 0 0 L 0 0 L 0 0 L 0 0 L 0 0 L 0 0 L 0 0 L 0 0 L 0 0 L 0 0 L 0 0 L 0 0 L 0 0 L 0 0 L 0 0 L 0 0 L 0 0 L 0 0 L 0 0 L 0 0 L 0 0 L 0 0 L 0 0 L 0 0 L 0 0 L 0 0 L 0 0 L 0 0 L 0 0 L 0 0 L 0 0 L 0 0 L 0 0 L 0 0 L 0 0 L 0 0 L 0 0 L 0 0 M 70 0 L 70 0 L 69.9573578913367 2.442964769175068 L 69.8294835181877 4.882953162088771 L 69.61653267577913 7.316992428735743 L 69.31876481190993 9.74211706720458 L 68.93654271085457 12.155372436685123 L 68.4703320513664 14.553818357243154 L 67.92070083931975 16.93453269197674 L 67.28831871568232 19.294614907189942 L 66.57395614066074 21.631189606246316 L 65.77848345501359 23.94141003279681 L 64.90286981967512 26.22246153911384 L 63.94818203498206 28.471565015306016 L 62.91558324094169 30.68598027523542 L 61.80633150012489 32.863009395012355 L 60.62177826491071 34.99999999999999 L 59.363366730949814 37.09434849632434 L 58.03263007885291 39.143503242952285 L 56.63118960624632 41.14496766047312 L 55.160752752470536 43.09630327279608 L 53.62311101832846 44.99513267805775 L 52.020137783417596 46.839142445120075 L 50.35378602370558 48.62608593212981 L 48.62608593212981 50.353786023705574 L 46.839142445120075 52.020137783417596 L 44.99513267805776 53.62311101832846 L 43.09630327279608 55.16075275247054 L 41.14496766047312 56.63118960624632 L 39.14350324295228 58.03263007885292 L 37.09434849632434 59.36336673094983 L 35.00000000000001 60.6217782649107 L 32.86300939501236 61.806331500124884 L 30.685980275235423 62.91558324094169 L 28.471565015306016 63.94818203498206 L 26.222461539113837 64.90286981967512 L 23.941410032796817 65.77848345501359 L 21.631189606246323 66.57395614066074 L 19.294614907189942 67.28831871568232 L 16.934532691976738 67.92070083931975 L 14.553818357243161 68.47033205136638 L 12.155372436685129 68.93654271085457 L 9.742117067204582 69.31876481190993 L 7.316992428735742 69.61653267577913 L 4.882953162088766 69.8294835181877 L 2.4429647691750755 69.9573578913367 L 4.2862637970157365e-15 70 L -2.4429647691750667 69.9573578913367 L -4.882953162088773 69.8294835181877 L -7.316992428735749 69.61653267577913 L -9.742117067204575 69.31876481190993 L -12.155372436685122 68.93654271085457 L -14.553818357243154 68.4703320513664 L -16.934532691976745 67.92070083931975 L -19.294614907189935 67.28831871568232 L -21.631189606246313 66.57395614066075 L -23.94141003279681 65.77848345501359 L -26.222461539113844 64.90286981967512 L -28.47156501530602 63.94818203498206 L -30.685980275235426 62.915583240941686 L -32.86300939501236 61.806331500124884 L -34.999999999999986 60.62177826491071 L -37.094348496324336 59.36336673094983 L -39.14350324295227 58.03263007885292 L -41.144967660473114 56.63118960624632 L -43.09630327279608 55.16075275247054 L -44.99513267805776 53.62311101832846 L -46.839142445120075 52.020137783417596 L -48.62608593212982 50.353786023705574 L -50.35378602370559 48.6260859321298 L -52.02013778341758 46.83914244512008 L -53.62311101832845 44.995132678057765 L -55.16075275247053 43.096303272796085 L -56.63118960624632 41.14496766047313 L -58.03263007885291 39.143503242952285 L -59.36336673094983 37.09434849632434 L -60.62177826491071 34.99999999999999 L -61.80633150012489 32.86300939501235 L -62.91558324094169 30.685980275235412 L -63.948182034982054 28.47156501530603 L -64.90286981967512 26.222461539113855 L -65.77848345501359 23.94141003279682 L -66.57395614066074 21.631189606246327 L -67.28831871568232 19.294614907189946 L -67.92070083931975 16.93453269197674 L -68.4703320513664 14.553818357243152 L -68.93654271085457 12.15537243668512 L -69.31876481190993 9.742117067204573 L -69.61653267577913 7.3169924287357615 L -69.8294835181877 4.8829531620887865 L -69.9573578913367 2.44296476917508 L -70 8.572527594031473e-15 L -69.9573578913367 -2.442964769175063 L -69.8294835181877 -4.88295316208877 L -69.61653267577913 -7.316992428735745 L -69.31876481190992 -9.742117067204587 L -68.93654271085457 -12.155372436685132 L -68.47033205136638 -14.553818357243166 L -67.92070083931976 -16.934532691976724 L -67.28831871568232 -19.29461490718993 L -66.57395614066075 -21.63118960624631 L -65.77848345501359 -23.941410032796806 L -64.90286981967512 -26.22246153911384 L -63.94818203498206 -28.471565015306016 L -62.915583240941686 -30.685980275235423 L -61.806331500124884 -32.86300939501236 L -60.6217782649107 -35.00000000000001 L -59.36336673094983 -37.094348496324336 L -58.03263007885293 -39.14350324295227 L -56.63118960624632 -41.144967660473114 L -55.16075275247054 -43.09630327279607 L -53.623111018328466 -44.99513267805775 L -52.020137783417596 -46.839142445120075 L -50.353786023705574 -48.62608593212982 L -48.62608593212981 -50.35378602370558 L -46.83914244512007 -52.0201377834176 L -44.995132678057765 -53.62311101832845 L -43.096303272796064 -55.16075275247055 L -41.14496766047313 -56.631189606246316 L -39.143503242952264 -58.03263007885293 L -37.09434849632435 -59.36336673094981 L -35.00000000000003 -60.62177826491069 L -32.863009395012355 -61.80633150012489 L -30.68598027523544 -62.91558324094168 L -28.471565015306005 -63.94818203498207 L -26.222461539113862 -64.90286981967512 L -23.9414100327968 -65.77848345501359 L -21.63118960624633 -66.57395614066074 L -19.29461490718992 -67.28831871568232 L -16.934532691976745 -67.92070083931975 L -14.553818357243186 -68.47033205136638 L -12.155372436685123 -68.93654271085457 L -9.742117067204608 -69.31876481190992 L -7.316992428735735 -69.61653267577914 L -4.882953162088791 -69.8294835181877 L -2.4429647691750533 -69.9573578913367 L -1.2858791391047208e-14 -70 L 2.4429647691750898 -69.9573578913367 L 4.882953162088765 -69.8294835181877 L 7.316992428735709 -69.61653267577914 L 9.742117067204582 -69.31876481190993 L 12.155372436685099 -68.93654271085457 L 14.55381835724316 -68.47033205136638 L 16.93453269197672 -67.92070083931976 L 19.294614907189956 -67.28831871568231 L 21.631189606246306 -66.57395614066075 L 23.941410032796828 -65.77848345501359 L 26.222461539113837 -64.90286981967512 L 28.471565015305984 -63.948182034982075 L 30.68598027523542 -62.91558324094169 L 32.86300939501233 -61.8063315001249 L 35.00000000000001 -60.6217782649107 L 37.09434849632433 -59.36336673094983 L 39.14350324295229 -58.03263007885291 L 41.14496766047311 -56.63118960624633 L 43.0963032727961 -55.16075275247053 L 44.99513267805775 -53.623111018328466 L 46.839142445120046 -52.02013778341762 L 48.62608593212981 -50.353786023705574 L 50.35378602370556 -48.62608593212983 L 52.020137783417596 -46.83914244512007" transform="rotate(43 200 250) translate(200 250)" fill="none" stroke="rgb(48, 64, 16)" stroke-width="8"/></g><circle cx="200" cy="125" r="45" fill="none" stroke="rgb(48, 64, 16)" stroke-width="8"/><circle cx="200" cy="250" r="25" fill="none" stroke="rgb(48, 64, 16)" stroke-width="8"/><g transform="rotate(90)"><path d="M 230 225 L 230 255 Q 252 275 270 249" fill="none" stroke="rgb(48, 64, 16)" stroke-width="8"/><path d="M 0 0 L 0 0 L 0 0 L 0 0 L 0 0 L 0 0 L 0 0 L 0 0 L 0 0 L 0 0 L 0 0 L 0 0 L 0 0 L 0 0 L 0 0 L 0 0 L 0 0 L 0 0 L 0 0 L 0 0 L 0 0 L 0 0 L 0 0 L 0 0 L 0 0 L 0 0 L 0 0 L 0 0 L 0 0 L 0 0 L 0 0 L 0 0 L 0 0 L 0 0 L 0 0 L 0 0 L 0 0 L 0 0 L 0 0 L 0 0 L 0 0 L 0 0 L 0 0 L 0 0 L 0 0 L 0 0 L 0 0 L 0 0 L 0 0 L 0 0 L 0 0 L 0 0 L 0 0 L 0 0 L 0 0 L 0 0 L 0 0 L 0 0 L 0 0 L 0 0 L 0 0 L 0 0 L 0 0 L 0 0 L 0 0 L 0 0 L 0 0 L 0 0 L 0 0 L 0 0 L 0 0 L 0 0 L 0 0 L 0 0 L 0 0 L 0 0 L 0 0 L 0 0 L 0 0 L 0 0 L 0 0 L 0 0 L 0 0 L 0 0 L 0 0 L 0 0 L 0 0 L 0 0 L 0 0 L 0 0 L 0 0 L 0 0 L 0 0 L 0 0 L 0 0 L 0 0 L 0 0 L 0 0 L 0 0 L 0 0 L 0 0 L 0 0 L 0 0 L 0 0 L 0 0 L 0 0 L 0 0 L 0 0 L 0 0 L 0 0 L 0 0 L 0 0 L 0 0 L 0 0 L 0 0 L 0 0 L 0 0 L 0 0 L 0 0 L 0 0 L 0 0 L 0 0 L 0 0 L 0 0 L 0 0 L 0 0 L 0 0 L 0 0 L 0 0 L 0 0 L 0 0 L 0 0 L 0 0 L 0 0 L 0 0 L 0 0 L 0 0 L 0 0 L 0 0 L 0 0 L 0 0 L 0 0 L 0 0 L 0 0 L 0 0 L 0 0 L 0 0 L 0 0 L 0 0 L 0 0 L 0 0 L 0 0 L 0 0 L 0 0 L 0 0 L 0 0 L 0 0 L 0 0 L 0 0 L 0 0 L 0 0 M 70 0 L 70 0 L 69.9573578913367 2.442964769175068 L 69.8294835181877 4.882953162088771 L 69.61653267577913 7.316992428735743 L 69.31876481190993 9.74211706720458 L 68.93654271085457 12.155372436685123 L 68.4703320513664 14.553818357243154 L 67.92070083931975 16.93453269197674 L 67.28831871568232 19.294614907189942 L 66.57395614066074 21.631189606246316 L 65.77848345501359 23.94141003279681 L 64.90286981967512 26.22246153911384 L 63.94818203498206 28.471565015306016 L 62.91558324094169 30.68598027523542 L 61.80633150012489 32.863009395012355 L 60.62177826491071 34.99999999999999 L 59.363366730949814 37.09434849632434 L 58.03263007885291 39.143503242952285 L 56.63118960624632 41.14496766047312 L 55.160752752470536 43.09630327279608 L 53.62311101832846 44.99513267805775 L 52.020137783417596 46.839142445120075 L 50.35378602370558 48.62608593212981 L 48.62608593212981 50.353786023705574 L 46.839142445120075 52.020137783417596 L 44.99513267805776 53.62311101832846 L 43.09630327279608 55.16075275247054 L 41.14496766047312 56.63118960624632 L 39.14350324295228 58.03263007885292 L 37.09434849632434 59.36336673094983 L 35.00000000000001 60.6217782649107 L 32.86300939501236 61.806331500124884 L 30.685980275235423 62.91558324094169 L 28.471565015306016 63.94818203498206 L 26.222461539113837 64.90286981967512 L 23.941410032796817 65.77848345501359 L 21.631189606246323 66.57395614066074 L 19.294614907189942 67.28831871568232 L 16.934532691976738 67.92070083931975 L 14.553818357243161 68.47033205136638 L 12.155372436685129 68.93654271085457 L 9.742117067204582 69.31876481190993 L 7.316992428735742 69.61653267577913 L 4.882953162088766 69.8294835181877 L 2.4429647691750755 69.9573578913367 L 4.2862637970157365e-15 70 L -2.4429647691750667 69.9573578913367 L -4.882953162088773 69.8294835181877 L -7.316992428735749 69.61653267577913 L -9.742117067204575 69.31876481190993 L -12.155372436685122 68.93654271085457 L -14.553818357243154 68.4703320513664 L -16.934532691976745 67.92070083931975 L -19.294614907189935 67.28831871568232 L -21.631189606246313 66.57395614066075 L -23.94141003279681 65.77848345501359 L -26.222461539113844 64.90286981967512 L -28.47156501530602 63.94818203498206 L -30.685980275235426 62.915583240941686 L -32.86300939501236 61.806331500124884 L -34.999999999999986 60.62177826491071 L -37.094348496324336 59.36336673094983 L -39.14350324295227 58.03263007885292 L -41.144967660473114 56.63118960624632 L -43.09630327279608 55.16075275247054 L -44.99513267805776 53.62311101832846 L -46.839142445120075 52.020137783417596 L -48.62608593212982 50.353786023705574 L -50.35378602370559 48.6260859321298 L -52.02013778341758 46.83914244512008 L -53.62311101832845 44.995132678057765 L -55.16075275247053 43.096303272796085 L -56.63118960624632 41.14496766047313 L -58.03263007885291 39.143503242952285 L -59.36336673094983 37.09434849632434 L -60.62177826491071 34.99999999999999 L -61.80633150012489 32.86300939501235 L -62.91558324094169 30.685980275235412 L -63.948182034982054 28.47156501530603 L -64.90286981967512 26.222461539113855 L -65.77848345501359 23.94141003279682 L -66.57395614066074 21.631189606246327 L -67.28831871568232 19.294614907189946 L -67.92070083931975 16.93453269197674 L -68.4703320513664 14.553818357243152 L -68.93654271085457 12.15537243668512 L -69.31876481190993 9.742117067204573 L -69.61653267577913 7.3169924287357615 L -69.8294835181877 4.8829531620887865 L -69.9573578913367 2.44296476917508 L -70 8.572527594031473e-15 L -69.9573578913367 -2.442964769175063 L -69.8294835181877 -4.88295316208877 L -69.61653267577913 -7.316992428735745 L -69.31876481190992 -9.742117067204587 L -68.93654271085457 -12.155372436685132 L -68.47033205136638 -14.553818357243166 L -67.92070083931976 -16.934532691976724 L -67.28831871568232 -19.29461490718993 L -66.57395614066075 -21.63118960624631 L -65.77848345501359 -23.941410032796806 L -64.90286981967512 -26.22246153911384 L -63.94818203498206 -28.471565015306016 L -62.915583240941686 -30.685980275235423 L -61.806331500124884 -32.86300939501236 L -60.6217782649107 -35.00000000000001 L -59.36336673094983 -37.094348496324336 L -58.03263007885293 -39.14350324295227 L -56.63118960624632 -41.144967660473114 L -55.16075275247054 -43.09630327279607 L -53.623111018328466 -44.99513267805775 L -52.020137783417596 -46.839142445120075 L -50.353786023705574 -48.62608593212982 L -48.62608593212981 -50.35378602370558 L -46.83914244512007 -52.0201377834176 L -44.995132678057765 -53.62311101832845 L -43.096303272796064 -55.16075275247055 L -41.14496766047313 -56.631189606246316 L -39.143503242952264 -58.03263007885293 L -37.09434849632435 -59.36336673094981 L -35.00000000000003 -60.62177826491069 L -32.863009395012355 -61.80633150012489 L -30.68598027523544 -62.91558324094168 L -28.471565015306005 -63.94818203498207 L -26.222461539113862 -64.90286981967512 L -23.9414100327968 -65.77848345501359 L -21.63118960624633 -66.57395614066074 L -19.29461490718992 -67.28831871568232 L -16.934532691976745 -67.92070083931975 L -14.553818357243186 -68.47033205136638 L -12.155372436685123 -68.93654271085457 L -9.742117067204608 -69.31876481190992 L -7.316992428735735 -69.61653267577914 L -4.882953162088791 -69.8294835181877 L -2.4429647691750533 -69.9573578913367 L -1.2858791391047208e-14 -70 L 2.4429647691750898 -69.9573578913367 L 4.882953162088765 -69.8294835181877 L 7.316992428735709 -69.61653267577914 L 9.742117067204582 -69.31876481190993 L 12.155372436685099 -68.93654271085457 L 14.55381835724316 -68.47033205136638 L 16.93453269197672 -67.92070083931976 L 19.294614907189956 -67.28831871568231 L 21.631189606246306 -66.57395614066075 L 23.941410032796828 -65.77848345501359 L 26.222461539113837 -64.90286981967512 L 28.471565015305984 -63.948182034982075 L 30.68598027523542 -62.91558324094169 L 32.86300939501233 -61.8063315001249 L 35.00000000000001 -60.6217782649107 L 37.09434849632433 -59.36336673094983 L 39.14350324295229 -58.03263007885291 L 41.14496766047311 -56.63118960624633 L 43.0963032727961 -55.16075275247053 L 44.99513267805775 -53.623111018328466 L 46.839142445120046 -52.02013778341762 L 48.62608593212981 -50.353786023705574 L 50.35378602370556 -48.62608593212983 L 52.020137783417596 -46.83914244512007" transform="rotate(43 200 250) translate(200 250)" fill="none" stroke="rgb(48, 64, 16)" stroke-width="8"/></g></svg>