<?xml version="1.0" standalone="no"?><!DOCTYPE svg PUBLIC "-//W3C//DTD SVG 1.1//EN" "http://www.w3.org/Graphics/SVG/1.1/DTD/svg11.dtd"><svg width="600" height="750" version="1.1" xmlns="http://www.w3.org/2000/svg" xmlns:xlink="http://www.w3.org/1999/xlink"><defs xmlns="http://www.w3.org/1999/xhtml"><style type="text/css"><![CDATA[
body { background-color: rgb(234, 234, 234); }
#canvas svg { box-shadow: rgba(0, 0, 0, 0.0588235) 0px 3px 2px 0px, rgba(0, 0, 0, 0.0196078) -1px -1px 1px 0px inset; border-width: 1px; border-style: solid; border-color: rgb(226, 226, 226) rgb(226, 226, 226) rgb(206, 206, 206); background-color: white; }]]></style></defs><rect x="10" y="10" width="580" height="730" fill="rgb(0, 0, 0)" stroke="rgb(0, 0, 0)"/><path d="" fill="rgb(128, 128, 128)" stroke="rgb(0, 0, 0)"/><line x1="300" y1="0" x2="300" y2="750" fill="rgb(128, 128, 128)" stroke="rgb(85, 255, 0)" stroke-width="2"/><line x1="300" y1="0" x2="330" y2="750" fill="rgb(128, 128, 128)" stroke="rgb(85, 255, 0)" stroke-width="2"/><line x1="300" y1="0" x2="360" y2="750" fill="rgb(128, 128, 128)" stroke="rgb(85, 255, 0)" stroke-width="2"/><line x1="300" y1="0" x2="390" y2="750" fill="rgb(128, 128, 128)" stroke="rgb(85, 255, 0)" stroke-width="2"/><line x1="300" y1="0" x2="420" y2="750" fill="rgb(128, 128, 128)" stroke="rgb(85, 255, 0)" stroke-width="2"/><line x1="300" y1="0" x2="450" y2="750" fill="rgb(128, 128, 128)" stroke="rgb(85, 255, 0)" stroke-width="2"/><path d="" fill="rgb(128, 128, 128)" stroke="rgb(0, 0, 0)"/><line x1="300" y1="0" x2="300" y2="750" fill="rgb(128, 128, 128)" stroke="rgb(85, 255, 0)" stroke-width="2"/><line x1="300" y1="0" x2="270" y2="750" fill="rgb(128, 128, 128)" stroke="rgb(85, 255, 0)" stroke-width="2"/><line x1="300" y1="0" x2="240" y2="750" fill="rgb(128, 128, 128)" stroke="rgb(85, 255, 0)" stroke-width="2"/><line x1="300" y1="0" x2="210" y2="750" fill="rgb(128, 128, 128)" stroke="rgb(85, 255, 0)" stroke-width="2"/><line x1="300" y1="0" x2="180" y2="750" fill="rgb(128, 128, 128)" stroke="rgb(85, 255, 0)" stroke-width="2"/><line x1="300" y1="0" x2="150" y2="750" fill="rgb(128, 128, 128)" stroke="rgb(85, 255, 0)" stroke-width="2"/><circle cx="300" cy="0" r="17.723765822593123" fill="none" stroke="rgb(85, 255, 0)"/><circle cx="300" cy="575" r="17.723765822593123" fill="none" stroke="rgb(85, 255, 0)"/><circle cx="300" cy="575" r="117.72376582259312" fill="none" stroke="rgb(85, 255, 0)"/><circle cx="300" cy="575" r="217.72376582259312" fill="none" stroke="rgb(85, 255, 0)"/></svg>