<?xml version="1.0" standalone="no"?><!DOCTYPE svg PUBLIC "-//W3C//DTD SVG 1.1//EN" "http://www.w3.org/Graphics/SVG/1.1/DTD/svg11.dtd"><svg width="600" height="750" version="1.1" xmlns="http://www.w3.org/2000/svg" xmlns:xlink="http://www.w3.org/1999/xlink"><defs xmlns="http://www.w3.org/1999/xhtml"><style type="text/css"><![CDATA[
body { background-color: rgb(234, 234, 234); }
#canvas svg { box-shadow: rgba(0, 0, 0, 0.0588235) 0px 3px 2px 0px, rgba(0, 0, 0, 0.0196078) -1px -1px 1px 0px inset; border-width: 1px; border-style: solid; border-color: rgb(226, 226, 226) rgb(226, 226, 226) rgb(206, 206, 206); background-color: white; }]]></style></defs><rect x="0" y="0" width="600" height="750" fill="rgb(0, 0, 0)" stroke="rgb(0, 0, 0)"/><path d="" fill="rgb(128, 128, 128)" stroke="rgb(0, 0, 0)"/><line x1="300" y1="0" x2="300" y2="750" fill="rgb(128, 128, 128)" stroke="rgb(0, 255, 0)" stroke-width="2"/><line x1="350" y1="0" x2="350" y2="750" fill="rgb(128, 128, 128)" stroke="rgb(0, 255, 0)" stroke-width="2"/><line x1="400" y1="0" x2="400" y2="750" fill="rgb(128, 128, 128)" stroke="rgb(0, 255, 0)" stroke-width="2"/><path d="" fill="rgb(128, 128, 128)" stroke="rgb(0, 0, 0)"/><line x1="300" y1="0" x2="300" y2="750" fill="rgb(128, 128, 128)" stroke="rgb(0, 255, 0)" stroke-width="2"/><line x1="250" y1="0" x2="250" y2="750" fill="rgb(128, 128, 128)" stroke="rgb(0, 255, 0)" stroke-width="2"/><line x1="200" y1="0" x2="200" y2="750" fill="rgb(128, 128, 128)" stroke="rgb(0, 255, 0)" stroke-width="2"/><circle cx="300" cy="0" r="60.42383662890643" fill="none" stroke="rgb(128, 255, 0)"/><circle cx="300" cy="0" r="98.0098444223404" fill="none" stroke="rgb(128, 255, 0)"/><circle cx="300" cy="575" r="0" fill="none" stroke="rgb(255, 255, 0)"/><circle cx="300" cy="575" r="90.9160374617204" fill="none" stroke="rgb(255, 255, 0)"/><circle cx="300" cy="575" r="181.8320749234408" fill="none" stroke="rgb(255, 255, 0)"/><circle cx="300" cy="575" r="272.7481123851612" fill="none" stroke="rgb(255, 255, 0)"/><circle cx="300" cy="575" r="363.6641498468816" fill="none" stroke="rgb(255, 255, 0)"/><circle cx="300" cy="575" r="454.58018730860204" fill="none" stroke="rgb(255, 255, 0)"/><circle cx="300" cy="575" r="545.4962247703224" fill="none" stroke="rgb(255, 255, 0)"/><circle cx="300" cy="575" r="636.4122622320428" fill="none" stroke="rgb(255, 255, 0)"/></svg>