<?xml version="1.0" standalone="no"?><!DOCTYPE svg PUBLIC "-//W3C//DTD SVG 1.1//EN" "http://www.w3.org/Graphics/SVG/1.1/DTD/svg11.dtd"><svg width="600" height="750" version="1.1" xmlns="http://www.w3.org/2000/svg" xmlns:xlink="http://www.w3.org/1999/xlink"><defs xmlns="http://www.w3.org/1999/xhtml"><style type="text/css"><![CDATA[
body { background-color: rgb(234, 234, 234); }
#canvas svg { box-shadow: rgba(0, 0, 0, 0.0588235) 0px 3px 2px 0px, rgba(0, 0, 0, 0.0196078) -1px -1px 1px 0px inset; border-width: 1px; border-style: solid; border-color: rgb(226, 226, 226) rgb(226, 226, 226) rgb(206, 206, 206); background-color: white; }]]></style></defs><rect x="0" y="0" width="600" height="750" fill="rgb(0, 0, 0)" stroke="rgb(0, 0, 0)"/><circle cx="300" cy="375" r="88.60254342202097" fill="none" stroke="rgb(0, 128, 255)" stroke-width="2"/><circle cx="300" cy="375" r="94.2283159152139" fill="none" stroke="rgb(0, 128, 255)" stroke-width="2"/><circle cx="300" cy="375" r="95.75303028523922" fill="none" stroke="rgb(0, 128, 255)" stroke-width="2"/><circle cx="300" cy="375" r="132.66164833353832" fill="none" stroke="rgb(0, 128, 255)" stroke-width="2"/><path d="M 0 0 L 0 500 M 42 60 L 42 500 M 84 60 L 84 500 M 126 120 L 126 500 M 168 160 L 168 500 M 208 200 L 208 500 Z" transform="translate(200 73.9750643610023)" fill="rgb(128, 128, 128)" stroke="rgb(128, 0, 255)" stroke-width="3"/><path d="M 0 0 L 250 0 L 250 50 L 0 50 L 0 0 Z" transform="translate(175 577.4088643142022)" fill="none" stroke="rgb(0, 0, 255)" stroke-width="2"/><circle cx="200" cy="602.4088643142022" r="5" fill="rgb(0, 255, 255)" stroke="none"/><circle cx="250" cy="602.4088643142022" r="5" fill="rgb(0, 255, 255)" stroke="none"/><circle cx="300" cy="602.4088643142022" r="5" fill="rgb(0, 255, 255)" stroke="none"/><circle cx="350" cy="602.4088643142022" r="5" fill="rgb(0, 255, 255)" stroke="none"/><circle cx="400" cy="602.4088643142022" r="5" fill="rgb(0, 255, 255)" stroke="none"/></svg>